# xmcd
#
# Track frame offsets:
#	150
#	15590
#	27661
#	43592
#	53769
#	67195
#	76437
#	87504
#	97839
#	106539
#	121777
#	135068
#	148483
#	163997
#	174946
#	188120
#	200422
#	213321
#	222427
#	236462
#	248313
#	260513
#	276418
#	285938
#	298429
#
# Disc length: 4147 seconds
#
# Revision: 0
# Processed by: cddbd v1.5.2PL0 Copyright (c) Steve Scherf et al.
# Submitted via: audiograbber 1.83.01
#
DISCID=6c103119
DTITLE=CARLOS ALMENAR OTERO - SUS GRANDES EXITOS
DYEAR=2007
DGENRE=Ballad
TTITLE0=CARLOS ALMENAR OTERO - GRANADA
TTITLE1=CARLOS ALMENAR OTERO - CARA MIA
TTITLE2=CARLOS ALMENAR OTERO - HABLAME DE AMORES MARIU
TTITLE3=CARLOS ALMENAR OTERO - NO LLORES POR MI BELLA MARIA
TTITLE4=CARLOS ALMENAR OTERO - UNA LAGRIMA
TTITLE5=CARLOS ALMENAR OTERO - EL MAR ME PREGUNTA
TTITLE6=CARLOS ALMENAR OTERO - ROSA DE TENTACION
TTITLE7=CARLOS ALMENAR OTERO - LADY LOVE YOU
TTITLE8=CARLOS ALMENAR OTERO - IGUAL QUE YO
TTITLE9=CARLOS ALMENAR OTERO - BUSCANDO AMOR
TTITLE10=CARLOS ALMENAR OTERO - LA CANCION DEL ADIOS
TTITLE11=CARLOS ALMENAR OTERO - QUIERO PERDONARTE
TTITLE12=CARLOS ALMENAR OTERO - TE HARE OLVIDAR
TTITLE13=CARLOS ALMENAR OTERO - SI TU ME DAS TU AMOR
TTITLE14=CARLOS ALMENAR OTERO - SERENATA VENECIANA
TTITLE15=CARLOS ALMENAR OTERO - ME CONSUELA
TTITLE16=CARLOS ALMENAR OTERO - QUIERO QUEDARME CONTIGO
TTITLE17=CARLOS ALMENAR OTERO - VENTE CONMIGO A LA PLAYA
TTITLE18=CARLOS ALMENAR OTERO - MARIA MAGDALENA
TTITLE19=CARLOS ALMENAR OTERO - NANITA NANA
TTITLE20=CARLOS ALMENAR OTERO - AY, AY, AY
TTITLE21=CARLOS ALMENAR OTERO - LA PALOMA
TTITLE22=CARLOS ALMENAR OTERO - SAN FRANCISCO DE ASIS
TTITLE23=CARLOS ALMENAR OTERO - SIN TI NO PUEDO ESTAR
TTITLE24=CARLOS ALMENAR OTERO - UNA CANCION DENTRO DE MI
EXTD=FUNDACION INTERNACIONAL JOSE GUILLERMO CARRILLO
EXTT0=Autor: Agustin Lara
EXTT1=Autor: Tulio Trapani and Lee Lange\n
EXTT2=Autores: Ennio Neri, Louis Raymond, Cesare Bixio and Carlos Alemenar Otero
EXTT2=\n
EXTT3=Autores: Sadmann and salinas
EXTT4=Autores: Fiedel Berlipp and Carlos Almenar Otero
EXTT5=Autores: Erwin Halletz and Carlos Almenar Otero
EXTT6=Autores: Frederick E. Weatherly and Carlos Almenar Otero\n\n
EXTT7=Autores: Lahn and Carlos Almenar Otero
EXTT8=Autores: Poll and Carlos Almenar Otero
EXTT9=Autores: DD
EXTT10=Autores: Albéniz and Carlos Almenar Otero
EXTT11=Autores: Hans Blum and Carlos Almenar Otero
EXTT12=Autor: Carlos Almenar Otero
EXTT13=Autores: Fiedel Berlipp and Carlos Almenar Otero
EXTT14=Autores: Sadmann and Carlos Almenar Otero
EXTT15=Autores: Hans Blum and Carlos Almenar Otero
EXTT16=Autores: W. Scharfemberger and Carlos Almenar Otero
EXTT17=Autores: Udo Westgard and Carlos Almenar Otero
EXTT18=Autores: Conny Scheffeld and Carlos Almenar Otero
EXTT19=Autor: Manuel de Falla
EXTT20=Autor: Osman Pérez Freyre
EXTT21=Autor: Sebástian de Yraider
EXTT22=Autores: Lake, Grene and Carlos Almenar Otero
EXTT23=Autores: Sonneborn and Carlos Almenar Otero
EXTT24=Autores: Frederik Chopin and Carlos Almenar Otero
PLAYORDER=
